<?xml version="1.0" encoding="utf-8"?>
<!-- Generator: Adobe Illustrator 23.0.3, SVG Export Plug-In . SVG Version: 6.00 Build 0)  -->
<svg version="1.1" id="Layer_1" xmlns="http://www.w3.org/2000/svg" xmlns:xlink="http://www.w3.org/1999/xlink" x="0px" y="0px"
	 viewBox="0 0 50 50" style="enable-background:new 0 0 50 50;" xml:space="preserve">
<style type="text/css">
	.st0{fill:url(#SVGID_1_);}
	.st1{fill:url(#SVGID_2_);}
	.st2{fill:url(#SVGID_3_);}
	.st3{fill:url(#SVGID_4_);}
	.st4{fill:url(#SVGID_5_);}
	.st5{fill:url(#SVGID_6_);}
	.st6{fill:url(#SVGID_7_);}
	.st7{fill:url(#SVGID_8_);}
	.st8{fill:url(#SVGID_9_);}
	.st9{fill:url(#SVGID_10_);}
	.st10{fill:url(#SVGID_11_);}
	.st11{fill:url(#SVGID_12_);}
	.st12{fill:url(#SVGID_13_);}
	.st13{fill:url(#SVGID_14_);}
	.st14{fill:url(#SVGID_15_);}
	.st15{fill:url(#SVGID_16_);}
	.st16{fill:url(#SVGID_17_);}
	.st17{fill:url(#SVGID_18_);}
	.st18{fill:url(#SVGID_19_);}
	.st19{fill:url(#SVGID_20_);}
	.st20{fill:url(#SVGID_21_);}
	.st21{fill:url(#SVGID_22_);}
	.st22{fill:url(#SVGID_23_);}
	.st23{fill:url(#SVGID_24_);}
	.st24{fill:url(#SVGID_25_);}
	.st25{fill:url(#SVGID_26_);}
	.st26{fill:url(#SVGID_27_);}
	.st27{fill:url(#SVGID_28_);}
	.st28{fill:url(#SVGID_29_);}
	.st29{fill:url(#SVGID_30_);}
	.st30{fill:url(#SVGID_31_);}
	.st31{fill:url(#SVGID_32_);}
	.st32{fill:url(#SVGID_33_);}
	.st33{fill:url(#SVGID_34_);}
	.st34{fill:url(#SVGID_35_);}
	.st35{fill:url(#SVGID_36_);}
	.st36{fill:url(#SVGID_37_);}
	.st37{fill:url(#SVGID_38_);}
	.st38{fill:url(#SVGID_39_);}
	.st39{fill:url(#SVGID_40_);}
	.st40{fill:url(#SVGID_41_);}
	.st41{fill:url(#SVGID_42_);}
	.st42{fill:url(#SVGID_43_);}
	.st43{fill:url(#SVGID_44_);}
	.st44{fill:url(#SVGID_45_);}
	.st45{fill:url(#SVGID_46_);}
	.st46{fill:#222B39;}
	.st47{fill:#43D3E8;}
	.st48{fill:#FD0134;}
	.st49{fill:url(#SVGID_47_);}
	.st50{fill:url(#SVGID_48_);}
	.st51{fill:#FFFFFF;}
</style>
<g>
	<linearGradient id="SVGID_1_" gradientUnits="userSpaceOnUse" x1="4.0709" y1="21.6444" x2="46.135" y2="29.0615">
		<stop  offset="0" style="stop-color:#8D26E5"/>
		<stop  offset="1" style="stop-color:#3C01F3"/>
	</linearGradient>
	<circle class="st0" cx="25.1" cy="25.4" r="21.4"/>
</g>
<g>
	<g>
		<g>
			<g>
				<path class="st51" d="M34.4,15.7c-1.3-1.3-3-2-4.8-2c-1.8,0-3.6,0.7-4.8,2c-1,1-1.7,2.3-1.9,3.6c-0.2,1.2-0.1,2.5,0.3,3.7
					l-0.7,0.7l-1.7,0.5c-0.2,0-0.3,0.2-0.3,0.3L20,26l-1.5,0.4c-0.2,0-0.3,0.2-0.3,0.3l-0.4,1.5l-1.5,0.4c-0.2,0-0.3,0.2-0.3,0.3
					l-0.4,1.5L13.9,31c-0.2,0.1-0.4,0.3-0.4,0.5l0.5,3.8c0,0.2,0.2,0.4,0.4,0.4l3.2,0.5c0,0,0.1,0,0.1,0c0.1,0,0.3-0.1,0.4-0.1
					l9.2-9.2c2.5,0.9,5.2,0.3,7.1-1.6c1.3-1.3,2-3,2-4.8C36.4,18.7,35.7,17,34.4,15.7z M33.7,24.7c-1.7,1.7-4.2,2.2-6.4,1.3
					c-0.2-0.1-0.4,0-0.5,0.1l-9.3,9.3L15,34.9l-0.4-3l1.4-0.4c0.2,0,0.3-0.2,0.3-0.3l0.4-1.5l1.5-0.4c0.2,0,0.3-0.2,0.3-0.3l0.4-1.5
					l1.5-0.4c0.2,0,0.3-0.2,0.3-0.3l0.4-1.5l1.5-0.4c0.1,0,0.2-0.1,0.2-0.1l1-1c0.1-0.1,0.2-0.4,0.1-0.6c-1-2.2-0.5-4.8,1.2-6.5
					c1.1-1.1,2.6-1.7,4.1-1.7c1.6,0,3,0.6,4.1,1.7C36,18.7,36,22.4,33.7,24.7z"/>
				<path class="st51" d="M34.2,20c-0.1-1-0.6-2-1.3-2.8c-0.7-0.7-1.7-1.2-2.8-1.3c-0.7-0.1-1.3,0.3-1.6,0.9
					c-0.3,0.6-0.2,1.3,0.3,1.8l2.6,2.6c0.3,0.3,0.7,0.5,1.1,0.5c0.2,0,0.5-0.1,0.7-0.2C33.9,21.3,34.2,20.7,34.2,20z M32.8,20.7
					c-0.2,0.1-0.5,0.1-0.7-0.1L29.5,18c-0.2-0.2-0.2-0.5-0.1-0.7c0-0.1,0.2-0.3,0.5-0.3c0,0,0,0,0.1,0c0.8,0.1,1.6,0.5,2.2,1
					c0.6,0.6,0.9,1.3,1,2.2C33.2,20.5,32.9,20.7,32.8,20.7z"/>
				<path class="st51" d="M22.5,26.7l-5.7,5.7c-0.2,0.2-0.2,0.5,0,0.7c0.1,0.1,0.2,0.1,0.4,0.1c0.1,0,0.3,0,0.4-0.1l5.7-5.7
					c0.2-0.2,0.2-0.5,0-0.7C23,26.5,22.7,26.5,22.5,26.7z"/>
				<path class="st51" d="M24.1,25L24.1,25c-0.2,0.2-0.2,0.6,0,0.8c0.1,0.1,0.2,0.1,0.4,0.1c0.1,0,0.3,0,0.4-0.1l0,0
					c0.2-0.2,0.2-0.5,0-0.7C24.6,24.8,24.3,24.8,24.1,25z"/>
			</g>
		</g>
	</g>
</g>
</svg>
